<svg width="48" height="48" viewBox="0 0 48 48" fill="none" xmlns="http://www.w3.org/2000/svg">
<path d="M0 12C0 5.37258 5.37258 0 12 0H36C42.6274 0 48 5.37258 48 12V36C48 42.6274 42.6274 48 36 48H12C5.37258 48 0 42.6274 0 36V12Z" fill="#EFF4FA"/>
<g clip-path="url(#clip0_17401_396)">
<path d="M24 18.5625H34.6875C35.6383 20.4336 36.0817 22.5215 35.9735 24.6175C35.8652 26.7136 35.2091 28.7446 34.0706 30.5079C32.9321 32.2711 31.3511 33.7049 29.4852 34.6662C27.6194 35.6274 25.5341 36.0825 23.4375 35.9859" fill="#FFD648"/>
<path d="M28.7344 26.7188L23.4375 35.9859C21.3332 35.8901 19.2911 35.2421 17.5167 34.1069C15.7422 32.9718 14.2978 31.3895 13.3286 29.5192C12.3595 27.6488 11.8998 25.5563 11.9957 23.452C12.0916 21.3477 12.7398 19.3057 13.875 17.5312" fill="#36C76C"/>
<path d="M24 18.5626H34.6875C33.7301 16.6761 32.291 15.0762 30.5161 13.9251C28.7411 12.774 26.6934 12.1126 24.5805 12.0079C22.4675 11.9032 20.3645 12.3589 18.4844 13.3289C16.6044 14.2989 15.0142 15.7487 13.875 17.5313L19.2656 26.7188" fill="#DB4437"/>
<path d="M24 28.9219C26.7183 28.9219 28.9219 26.7183 28.9219 24C28.9219 21.2817 26.7183 19.0781 24 19.0781C21.2817 19.0781 19.0781 21.2817 19.0781 24C19.0781 26.7183 21.2817 28.9219 24 28.9219Z" fill="#4285F4" stroke="#F1F1F1" stroke-width="2"/>
</g>
<defs>
<clipPath id="clip0_17401_396">
<rect width="24" height="24" fill="white" transform="translate(12 12)"/>
</clipPath>
</defs>
</svg>
