<svg width="48" height="48" viewBox="0 0 48 48" fill="none" xmlns="http://www.w3.org/2000/svg">
<path d="M0 12C0 5.37258 5.37258 0 12 0H36C42.6274 0 48 5.37258 48 12V36C48 42.6274 42.6274 48 36 48H12C5.37258 48 0 42.6274 0 36V12Z" fill="#EFF4FA"/>
<g clip-path="url(#clip0_17401_416)">
<path d="M35.993 13H12.007C12.0031 13 12 13.0031 12 13.007V36.993C12 36.9969 12.0031 37 12.007 37H35.993C35.9969 37 36 36.9969 36 36.993V13.007C36 13.0031 35.9969 13 35.993 13Z" fill="#FFD648"/>
<path d="M27.1875 30.3438C27.6562 31.1406 28.3125 31.7031 29.3906 31.7031C30.3281 31.7031 30.9375 31.2344 30.9375 30.5781C30.9375 29.8281 30.3281 29.5469 29.2969 29.0781L28.7344 28.8438C27.0938 28.1406 26.0156 27.2969 26.0156 25.4688C26.0156 23.7812 27.2812 22.4688 29.2969 22.4688C30.75 22.4688 31.7812 22.9844 32.4844 24.2969L30.75 25.4219C30.375 24.7188 29.9531 24.4375 29.2969 24.4375C28.6406 24.4375 28.2188 24.8594 28.2188 25.4219C28.2188 26.0781 28.6406 26.3594 29.625 26.7812L30.1875 27.0156C32.1094 27.8594 33.1875 28.6562 33.1875 30.5781C33.1875 32.5938 31.5938 33.7188 29.4375 33.7188C27.3281 33.7188 25.9688 32.7344 25.3125 31.4219L27.1875 30.3438ZM19.2188 30.5312C19.5938 31.1406 19.875 31.7031 20.6719 31.7031C21.4219 31.7031 21.8906 31.4219 21.8906 30.2969V22.5156H24.1406V30.2031C24.1406 32.5469 22.7812 33.5781 20.7656 33.5781C18.9375 33.5781 17.9062 32.6406 17.3906 31.5156L19.2188 30.5312Z" fill="#29343D"/>
</g>
<defs>
<clipPath id="clip0_17401_416">
<path d="M12 17C12 14.7909 13.7909 13 16 13H32C34.2091 13 36 14.7909 36 17V33C36 35.2091 34.2091 37 32 37H16C13.7909 37 12 35.2091 12 33V17Z" fill="white"/>
</clipPath>
</defs>
</svg>
