<svg width="48" height="48" viewBox="0 0 48 48" fill="none" xmlns="http://www.w3.org/2000/svg">
<path d="M0 12C0 5.37258 5.37258 0 12 0H36C42.6274 0 48 5.37258 48 12V36C48 42.6274 42.6274 48 36 48H12C5.37258 48 0 42.6274 0 36V12Z" fill="#EFF4FA"/>
<path d="M20 37C22.208 37 24 35.208 24 33V29H20C17.792 29 16 30.792 16 33C16 35.208 17.792 37 20 37Z" fill="#36C76C"/>
<path d="M16 25C16 22.792 17.792 21 20 21H24V29H20C17.792 29 16 27.208 16 25Z" fill="#A259FF"/>
<path d="M16 17C16 14.792 17.792 13 20 13H24V21H20C17.792 21 16 19.208 16 17Z" fill="#F24E1E"/>
<path d="M24 13H28C30.208 13 32 14.792 32 17C32 19.208 30.208 21 28 21H24V13Z" fill="#FF7262"/>
<path d="M32 25C32 27.208 30.208 29 28 29C25.792 29 24 27.208 24 25C24 22.792 25.792 21 28 21C30.208 21 32 22.792 32 25Z" fill="#1ABCFE"/>
</svg>
