<svg width="48" height="48" viewBox="0 0 48 48" fill="none" xmlns="http://www.w3.org/2000/svg">
<path d="M0 12C0 5.37258 5.37258 0 12 0H36C42.6274 0 48 5.37258 48 12V36C48 42.6274 42.6274 48 36 48H12C5.37258 48 0 42.6274 0 36V12Z" fill="#EFF4FA"/>
<rect width="48" height="48" rx="8" fill="#E0E6EB"/>
<g clip-path="url(#clip0_17401_375)">
<path d="M35.993 11H12.007C12.0031 11 12 11.0031 12 11.007V34.993C12 34.9969 12.0031 35 12.007 35H35.993C35.9969 35 36 34.9969 36 34.993V11.007C36 11.0031 35.9969 11 35.993 11Z" fill="#ED2224"/>
<path d="M25.875 16.625L31.2188 29.375V16.625H25.875ZM16.7812 16.625V29.375L22.125 16.625H16.7812ZM21.7031 26.7969H24.1406L25.2188 29.375H27.375L23.9531 21.2656L21.7031 26.7969Z" fill="white"/>
</g>
<defs>
<clipPath id="clip0_17401_375">
<path d="M12 15C12 12.7909 13.7909 11 16 11H32C34.2091 11 36 12.7909 36 15V31C36 33.2091 34.2091 35 32 35H16C13.7909 35 12 33.2091 12 31V15Z" fill="white"/>
</clipPath>
</defs>
</svg>
