<svg width="48" height="48" viewBox="0 0 48 48" fill="none" xmlns="http://www.w3.org/2000/svg">
<path d="M0 12C0 5.37258 5.37258 0 12 0H36C42.6274 0 48 5.37258 48 12V36C48 42.6274 42.6274 48 36 48H12C5.37258 48 0 42.6274 0 36V12Z" fill="#EFF4FA"/>
<path d="M33.25 32H14.75C14.0208 31.9995 13.3217 31.7096 12.806 31.194C12.2904 30.6783 12.0005 29.9792 12 29.25V16.75C12.0005 16.0208 12.2904 15.3217 12.806 14.806C13.3217 14.2904 14.0208 14.0005 14.75 14H20C20.199 14 20.39 14.079 20.53 14.22L22.311 16H33.25C33.9792 16.0005 34.6783 16.2904 35.194 16.806C35.7096 17.3217 35.9995 18.0208 36 18.75V29.25C35.9995 29.9792 35.7096 30.6783 35.194 31.194C34.6783 31.7096 33.9792 31.9995 33.25 32Z" fill="#03A9F4"/>
<path d="M23.5 27C23.3011 27 23.1103 26.921 22.9697 26.7803C22.829 26.6397 22.75 26.4489 22.75 26.25V21.75C22.75 21.5511 22.829 21.3603 22.9697 21.2197C23.1103 21.079 23.3011 21 23.5 21C23.6989 21 23.8897 21.079 24.0303 21.2197C24.171 21.3603 24.25 21.5511 24.25 21.75V26.25C24.25 26.4489 24.171 26.6397 24.0303 26.7803C23.8897 26.921 23.6989 27 23.5 27ZM20.25 27H17.75C17.6193 27.0005 17.4907 26.9667 17.3771 26.9019C17.2635 26.8372 17.1688 26.7438 17.1025 26.6311C17.0363 26.5184 17.0007 26.3903 16.9994 26.2596C16.9981 26.1288 17.031 26 17.095 25.886L18.976 22.5H17.75C17.5511 22.5 17.3603 22.421 17.2197 22.2803C17.079 22.1397 17 21.9489 17 21.75C17 21.5511 17.079 21.3603 17.2197 21.2197C17.3603 21.079 17.5511 21 17.75 21H20.25C20.3808 20.9995 20.5093 21.0334 20.6229 21.0981C20.7365 21.1628 20.8312 21.2562 20.8975 21.3689C20.9637 21.4816 20.9993 21.6097 21.0006 21.7404C21.002 21.8712 20.969 22 20.905 22.114L19.024 25.5H20.25C20.4489 25.5 20.6397 25.579 20.7803 25.7197C20.921 25.8603 21 26.0511 21 26.25C21 26.4489 20.921 26.6397 20.7803 26.7803C20.6397 26.921 20.4489 27 20.25 27ZM26.75 27C26.5511 27 26.3603 26.921 26.2197 26.7803C26.079 26.6397 26 26.4489 26 26.25V21.75C26 21.5511 26.079 21.3603 26.2197 21.2197C26.3603 21.079 26.5511 21 26.75 21H28C29.103 21 30 21.897 30 23C30 24.103 29.103 25 28 25H27.5V26.25C27.5 26.4489 27.421 26.6397 27.2803 26.7803C27.1397 26.921 26.9489 27 26.75 27ZM27.5 23.5H28C28.275 23.5 28.5 23.275 28.5 23C28.5 22.725 28.275 22.5 28 22.5H27.5V23.5Z" fill="white"/>
</svg>
